rec1_008.mot
nRows=30
nColumns=19

name rec1_008.mot
datacolumns 19
datarows 30
range 10.0040785684 10.0620793191
endheader
time	ground_force_vx	ground_force_vy	ground_force_vz	ground_force_px	ground_force_py	ground_force_pz	1_ground_force_vx	1_ground_force_vy	1_ground_force_vz	1_ground_force_px	1_ground_force_py	1_ground_force_pz	ground_torque_x	ground_torque_y	ground_torque_z	1_ground_torque_x	1_ground_torque_y	1_ground_torque_z	
       10.0040785684	      -13.7061423655	      377.7776311134	      -41.8098933050	       -0.7000000000	       -0.0180000000	        0.5600000000	        8.1367967365	      353.4857065302	       45.5776419095	       -0.7000000000	       -0.0180000000	       -0.5600000000	      145.0242011265	       26.1610049526	      364.9224406209	     -122.5260315179	      -40.1908840862	      338.0712013339	
       10.0060787846	      -13.7739342171	      377.4829987879	      -42.0157048658	       -0.7000000000	       -0.0180000000	        0.5600000000	        8.4933800127	      353.3386349309	       45.5352150355	       -0.7000000000	       -0.0180000000	       -0.5600000000	      144.8605117226	       26.3496654198	      364.7540657761	     -122.4778077353	      -40.0104975440	      337.9281105340	
       10.0080786008	      -13.8328596090	      377.1669774997	      -42.2317878325	       -0.7000000000	       -0.0180000000	        0.5600000000	        8.8052348532	      353.2222815781	       45.4794220728	       -0.7000000000	       -0.0180000000	       -0.5600000000	      144.6878933211	       26.5435080122	      364.5625474235	     -122.4363265546	      -39.8337390701	      337.8196941437	
       10.0100788570	      -13.8852572706	      376.8334077049	      -42.4538651964	       -0.7000000000	       -0.0180000000	        0.5600000000	        9.0680598298	      353.1309269339	       45.4107880737	       -0.7000000000	       -0.0180000000	       -0.5600000000	      144.5087230664	       26.7400610833	      364.3518141989	     -122.3996609469	      -39.6627580015	      337.7411140849	
       10.0120787133	      -13.9332121166	      376.4859059348	      -42.6775725724	       -0.7000000000	       -0.0180000000	        0.5600000000	        9.2783296204	      353.0577423838	       45.3297377320	       -0.7000000000	       -0.0180000000	       -0.5600000000	      144.3253224755	       26.9370834052	      364.1255358385	     -122.3655970769	      -39.4993832811	      337.6863680958	
       10.0140788895	      -13.9784538382	      376.1278679993	      -42.8985629808	       -0.7000000000	       -0.0180000000	        0.5600000000	        9.4334520709	      352.9951369880	       45.2366680103	       -0.7000000000	       -0.0180000000	       -0.5600000000	      144.1399039517	       27.1328892262	      363.8870665186	     -122.3317486664	      -39.3451231017	      337.6485346672	
       10.0160787457	      -14.0222690771	      375.7625033253	      -43.1125933488	       -0.7000000000	       -0.0180000000	        0.5600000000	        9.5318093297	      352.9350607598	       45.1320370873	       -0.7000000000	       -0.0180000000	       -0.5600000000	      143.9545329582	       27.3260593521	      363.6394167109	     -122.2956732439	      -39.2012120359	      337.6200059929	
       10.0180789221	      -14.0654350452	      375.3928425458	      -43.3156036301	       -0.7000000000	       -0.0180000000	        0.5600000000	        9.5727317780	      352.8693064145	       45.0164360312	       -0.7000000000	       -0.0180000000	       -0.5600000000	      143.7710892262	       27.5149054142	      363.3852311130	     -122.2549640849	      -39.0686692436	      337.5927930324	
       10.0200786582	      -14.1081788357	      375.0217121131	      -43.5037975145	       -0.7000000000	       -0.0180000000	        0.5600000000	        9.5564703312	      352.7898430526	       44.8906450655	       -0.7000000000	       -0.0180000000	       -0.5600000000	      143.5912328486	       27.6970555705	      363.1267712461	     -122.2073401166	      -38.9483569577	      337.5589349545	
       10.0220789545	      -14.1501704721	      374.6517022531	      -43.6737268615	       -0.7000000000	       -0.0180000000	        0.5600000000	        9.4842019695	      352.6891911113	       44.7556741296	       -0.7000000000	       -0.0180000000	       -0.5600000000	      143.4163813349	       27.8694159199	      362.8659020511	     -122.1507630457	      -38.8410122379	      337.5109861219	
       10.0240787307	      -14.1905608139	      374.2851665104	      -43.8223851153	       -0.7000000000	       -0.0180000000	        0.5600000000	        9.3580686912	      352.5608086099	       44.6127720136	       -0.7000000000	       -0.0180000000	       -0.5600000000	      143.2477024188	       28.0289551080	      362.6041203650	     -122.0835535231	      -38.7472292199	      337.4425003221	
       10.0260789469	      -14.2280642985	      373.9242736674	      -43.9473142827	       -0.7000000000	       -0.0180000000	        0.5600000000	        9.1812170141	      352.3994235177	       44.4633959592	       -0.7000000000	       -0.0180000000	       -0.5600000000	      143.0861343881	       28.1733344851	      362.3426736238	     -122.0044569135	      -38.6674055789	      337.3483816356	
       10.0280787232	      -14.2610638062	      373.5710929340	      -44.0467127718	       -0.7000000000	       -0.0180000000	        0.5600000000	        8.9577840290	      352.2012698272	       44.3091680815	       -0.7000000000	       -0.0180000000	       -0.5600000000	      142.9324378780	       28.3004080838	      362.0827311318	     -121.9126705486	      -38.6016938255	      337.2250358415	
       10.0300790594	      -14.2877169933	      373.2276758487	      -44.1195218494	       -0.7000000000	       -0.0180000000	        0.5600000000	        8.6928000308	      351.9642226060	       44.1518495935	       -0.7000000000	       -0.0180000000	       -0.5600000000	      142.7872630201	       28.4076425886	      361.8255248065	     -121.8078766115	      -38.5499948555	      337.0703831287	
       10.0320787957	      -14.3060597372	      372.8961061225	      -44.1654809996	       -0.7000000000	       -0.0180000000	        0.5600000000	        8.3920314735	      351.6878328628	       43.9933141846	       -0.7000000000	       -0.0180000000	       -0.5600000000	      142.6512047662	       28.4923159794	      361.5724384559	     -121.6902643171	      -38.5119819526	      336.8838179568	
       10.0340790119	      -14.3141078478	      372.5785191765	      -44.1851503651	       -0.7000000000	       -0.0180000000	        0.5600000000	        8.0618053220	      351.3732904686	       43.8355008990	       -0.7000000000	       -0.0180000000	       -0.5600000000	      142.5248370440	       28.5522414923	      361.3250802631	     -121.5605094871	      -38.4871330639	      336.6661752677	
       10.0360788281	      -14.3099651899	      372.2771424367	      -44.1798895641	       -0.7000000000	       -0.0180000000	        0.5600000000	        7.7088213244	      351.0233585609	       43.6803749587	       -0.7000000000	       -0.0180000000	       -0.5600000000	      142.4087458793	       28.5864896342	      361.0853660774	     -121.4197428285	      -38.4747964549	      336.4197132485	
       10.0380791244	      -14.2919440035	      371.9943889156	      -44.1517811242	       -0.7000000000	       -0.0180000000	        0.5600000000	        7.3399316864	      350.6422734772	       43.5299203278	       -0.7000000000	       -0.0180000000	       -0.5600000000	      142.3035734317	       28.5953495266	      360.8556006165	     -121.2695292737	      -38.4742998693	      336.1480339541	
       10.0400789006	      -14.2586866980	      371.7329645070	      -44.1035079704	       -0.7000000000	       -0.0180000000	        0.5600000000	        6.9618907069	      350.2355675738	       43.3861520017	       -0.7000000000	       -0.0180000000	       -0.5600000000	      142.2100580870	       28.5798118631	      360.6385352744	     -121.1118175654	      -38.4850591966	      335.8558684806	
       10.0420790768	      -14.2092681788	      371.4959410036	      -44.0382072022	       -0.7000000000	       -0.0180000000	        0.5600000000	        6.5811266548	      349.8098024375	       43.2511168444	       -0.7000000000	       -0.0180000000	       -0.5600000000	      142.1290597523	       28.5413921398	      360.4374041347	     -120.9488380778	      -38.5066415941	      335.5487611014	
       10.0440788932	      -14.1432592455	      371.2867787128	      -43.9593086982	       -0.7000000000	       -0.0180000000	        0.5600000000	        6.2035928716	      349.3722666315	       43.1268734870	       -0.7000000000	       -0.0180000000	       -0.5600000000	      142.0615706912	       28.4820564123	      360.2559249291	     -120.7829966633	      -38.5387792130	      335.2327556583	
       10.0460793094	      -14.0607441937	      371.1092945324	      -43.8703668819	       -0.7000000000	       -0.0180000000	        0.5600000000	        5.8347006168	      348.9306944594	       43.0154809185	       -0.7000000000	       -0.0180000000	       -0.5600000000	      142.0087070292	       28.4043250476	      360.0982350971	     -120.6168089460	      -38.5813656956	      334.9141521099	
       10.0480789656	      -13.9623031870	      370.9675778678	      -43.7749124159	       -0.7000000000	       -0.0180000000	        0.5600000000	        5.4792931461	      348.4929901146	       42.9189903871	       -0.7000000000	       -0.0180000000	       -0.5600000000	      141.9716750890	       28.3116940211	      359.9687676542	     -120.4528467692	      -38.6344511651	      334.5993088624	
       10.0500791418	      -13.8489734733	      370.8658593805	      -43.6763460255	       -0.7000000000	       -0.0180000000	        0.5600000000	        5.1416097213	      348.0669562621	       42.8393981122	       -0.7000000000	       -0.0180000000	       -0.5600000000	      141.9517176639	       28.2084350523	      359.8720946675	     -120.2936577442	      -38.6982225037	      334.2944606943	
       10.0520790781	      -13.7221999618	      370.8083375447	      -43.5778705165	       -0.7000000000	       -0.0180000000	        0.5600000000	        4.8252082873	      347.6600772527	       42.7785703230	       -0.7000000000	       -0.0180000000	       -0.5600000000	      141.9500541615	       28.0987169749	      359.8127433035	     -120.1416824404	      -38.7729752274	      334.0055760323	
       10.0540792143	      -13.5837856086	      370.7989796685	      -43.4824438803	       -0.7000000000	       -0.0180000000	        0.5600000000	        4.5328721032	      347.2793439612	       42.7381816709	       -0.7000000000	       -0.0180000000	       -0.5600000000	      141.9678198865	       27.9859622413	      359.7949816531	     -119.9991962358	      -38.8590901853	      333.7382392624	
       10.0560789904	      -13.4358378118	      370.8413068880	      -43.3927486729	       -0.7000000000	       -0.0180000000	        0.5600000000	        4.2665572435	      346.9310827834	       42.7196728248	       -0.7000000000	       -0.0180000000	       -0.5600000000	      142.0059926274	       27.8728612202	      359.8225981209	     -119.8682521989	      -38.9569978122	      333.4975139620	
       10.0580792867	      -13.2806978109	      370.9381640412	      -43.3111825169	       -0.7000000000	       -0.0180000000	        0.5600000000	        4.0274154821	      346.6208198019	       42.7242193953	       -0.7000000000	       -0.0180000000	       -0.5600000000	      142.0653045910	       27.7620585405	      359.8987201890	     -119.7506182929	      -39.0671216655	      333.2878082617	
       10.0600790230	      -13.1208559011	      371.0915104047	      -43.2398569344	       -0.7000000000	       -0.0180000000	        0.5600000000	        3.8158969655	      346.3532098905	       42.7527184708	       -0.7000000000	       -0.0180000000	       -0.5600000000	      142.1461655374	       27.6565225397	      360.0257000044	     -119.6477467606	      -39.1898376111	      333.1127940281	
       10.0620793191	      -12.9588620854	      371.3022682964	      -43.1805838851	       -0.7000000000	       -0.0180000000	        0.5600000000	        3.6319076612	      346.1320144676	       42.8058040526	       -0.7000000000	       -0.0180000000	       -0.5600000000	      142.2486177796	       27.5588008740	      360.2050417620	     -119.5607920820	      -39.3254791776	      332.9753947002	
